<svg width="280" height="44" viewBox="0 0 280 44" fill="none" xmlns="http://www.w3.org/2000/svg">
  <defs>
    <linearGradient id="g" x1="0" y1="0" x2="280" y2="44" gradientUnits="userSpaceOnUse">
      <stop stop-color="#22D3EE"/>
      <stop offset="0.45" stop-color="#3B82F6"/>
      <stop offset="1" stop-color="#A855F7"/>
    </linearGradient>
    <filter id="glow" x="-30%" y="-60%" width="160%" height="220%">
      <feGaussianBlur stdDeviation="3" result="b"/>
      <feMerge>
        <feMergeNode in="b"/>
        <feMergeNode in="SourceGraphic"/>
      </feMerge>
    </filter>
  </defs>

  <!-- SH Mark -->
  <g filter="url(#glow)">
    <!-- S -->
    <path d="M22.4 33.4C12.7 33.4 6.8 28.5 6.2 20.9H15.6C16.1 24.5 18.6 26.3 22.7 26.3C26.2 26.3 28.5 24.9 28.5 22.7C28.5 20.9 27.1 19.9 24.2 19.2L18.8 18C12.2 16.6 8.3 13.3 8.3 7.9C8.3 3 13.1 0.2 20.7 0.2C29.0 0.2 34.3 4.1 35.0 11.0H25.8C25.3 8.0 23.3 6.5 20.2 6.5C17.0 6.5 15.2 7.8 15.2 9.7C15.2 11.3 16.4 12.4 19.2 13.0L25.0 14.3C32.2 15.9 36.0 18.9 36.0 24.2C36.0 29.6 30.9 33.4 22.4 33.4Z" fill="url(#g)"/>
    <!-- H -->
    <path d="M44.5 33V1.4H53.7V13.5H67.0V1.4H76.2V33H67.0V21.3H53.7V33H44.5Z" fill="url(#g)"/>
  </g>

  <!-- Wordmark -->
  <text x="92" y="27" font-family="Inter, system-ui, -apple-system, Segoe UI, Roboto, Arial" font-size="14" fill="#E5E7EB" letter-spacing="1.2">
    SOFTWARE SOLUTIONS
  </text>
</svg>
